<svg width="1440" height="1418" viewBox="0 0 1440 1418" fill="none" xmlns="http://www.w3.org/2000/svg"><path d="M1336.52 478.636a6.74 6.74 0 006.74-6.738 6.74 6.74 0 00-13.48 0 6.74 6.74 0 006.74 6.738z" fill="#fff"/><path opacity=".5" d="M67.494 313.642a3.372 3.372 0 100-6.744 3.372 3.372 0 000 6.744z" fill="#fff"/><path d="M1159.61 107.134c1.87 0 3.38-1.51 3.38-3.372a3.374 3.374 0 00-3.38-3.372 3.372 3.372 0 000 6.744zm-633.296 1.416a3.372 3.372 0 100-6.743 3.372 3.372 0 000 6.743z" fill="#fff"/><path opacity=".5" d="M394.05 12.136a3.372 3.372 0 100-6.743 3.372 3.372 0 000 6.743zm844.39 895.722a3.372 3.372 0 000-6.744 3.371 3.371 0 000 6.744z" fill="#fff"/><path opacity=".2" d="M176.166 964.162a3.372 3.372 0 100-6.743 3.372 3.372 0 000 6.743zM1392.8 731.428a3.372 3.372 0 000-6.744 3.372 3.372 0 000 6.744zM1075.3 285.25a3.372 3.372 0 000-6.744c-1.87 0-3.38 1.51-3.38 3.372a3.374 3.374 0 003.38 3.372zm-552.352-7.356a3.372 3.372 0 100-6.745 3.372 3.372 0 000 6.745zm372.792 89.784a3.372 3.372 0 100-6.745 3.372 3.372 0 000 6.745zm-706.896 18.534a3.372 3.372 0 100-6.745 3.372 3.372 0 000 6.745zM146.106 3.706a1.685 1.685 0 10.001-3.37 1.685 1.685 0 00-.001 3.37zM375.09 405.658a1.686 1.686 0 100-3.372 1.686 1.686 0 000 3.372zm-34.35 435.276a1.686 1.686 0 100-3.372 1.686 1.686 0 000 3.372zm927.55-425.544c.93 0 1.68-.755 1.68-1.686 0-.931-.75-1.686-1.68-1.686-.93 0-1.69.755-1.69 1.686 0 .931.76 1.686 1.69 1.686zM1382 140.416c.94 0 1.69-.755 1.69-1.686 0-.931-.75-1.686-1.69-1.686-.93 0-1.68.755-1.68 1.686 0 .931.75 1.686 1.68 1.686zM230.502 50.098a3.372 3.372 0 100-6.743 3.372 3.372 0 000 6.743zm-109.848 103.2a2.381 2.381 0 10.001-4.763 2.381 2.381 0 00-.001 4.763zM968.916 7.774a2.382 2.382 0 100-4.764 2.382 2.382 0 000 4.764zm-317.442 688.95a2.382 2.382 0 100-4.764 2.382 2.382 0 000 4.764zm678.306 213.51c1.32 0 2.38-1.067 2.38-2.382a2.377 2.377 0 00-2.38-2.382 2.384 2.384 0 00-2.38 2.382 2.384 2.384 0 002.38 2.382z" fill="#fff"/><path opacity=".4" d="M427.53 759.19a3.372 3.372 0 100-6.743 3.372 3.372 0 000 6.743z" fill="#fff"/><path opacity=".2" d="M881.088 817.576a3.372 3.372 0 100-6.743 3.372 3.372 0 000 6.743z" fill="#fff"/><path opacity=".1" d="M562.458 843.964a6.402 6.402 0 100-12.804 6.402 6.402 0 100 12.804z" fill="#fff"/><path opacity=".5" d="M34.632 492.922a3.372 3.372 0 10.001-6.743 3.372 3.372 0 000 6.743zM1346.63 37.576a3.372 3.372 0 000-6.744 3.372 3.372 0 000 6.744z" fill="#fff"/><path d="M781.572 904.48a8.46 8.46 0 008.46-8.46 8.46 8.46 0 10-16.92 0 8.46 8.46 0 008.46 8.46z" fill="#fff"/><mask id="a" style="mask-type:luminance" maskUnits="userSpaceOnUse" x="-2" y="325" width="1513" height="1179"><path d="M1434.85 325.799L-1.64 426.248 73.697 1503.62l1436.493-100.45-75.34-1077.371z" fill="#fff"/></mask><g mask="url(#a)"><path d="M1638.2 501.131L1269 526.948c-13.3.93-23.32 12.463-22.39 25.763.93 13.299 12.46 23.325 25.76 22.395l25.35-1.773c10.7-.748 19.99 7.324 20.74 18.026s-7.32 19.987-18.03 20.736l-138.15 9.661c-13.3.93-23.33 12.463-22.4 25.762l.59 8.32c.93 13.3 12.46 23.326 25.76 22.396l208.09-14.552c12.96-.906 24.19 8.864 25.1 21.817.91 12.958-8.87 24.191-21.82 25.097l-59.58 4.166c-14.19.993-24.89 13.301-23.89 27.486.99 14.191 13.3 24.885 27.48 23.893l344.92-24.119c14.19-.993 24.89-13.301 23.89-27.486-.99-14.191-13.3-24.885-27.48-23.893l-62.72 4.386c-13.26.927-24.76-9.071-25.69-22.335-.93-13.263 9.07-24.765 22.33-25.692l155.66-10.885c12.74-.891 23.79 8.718 24.68 21.455 1.05 15.023 14.08 26.346 29.1 25.296l254.8-17.818c15.42-1.078 27.05-14.456 25.97-29.88-1.08-15.425-14.45-27.054-29.88-25.975l-108.66 7.598c-13.74.961-25.66-9.404-26.62-23.147-.97-13.748 9.4-25.666 23.14-26.627l29.15-2.039c10.7-.748 18.78-10.034 18.03-20.736-.75-10.701-10.04-18.773-20.74-18.025l-15.57 1.089-266.18 18.613c-12.78.893-23.86-8.737-24.76-21.516-.96-13.82-12.95-24.241-26.78-23.274z" fill="#fff" opacity=".1"/></g><mask id="b" style="mask-type:luminance" maskUnits="userSpaceOnUse" x="-34" y="307" width="1496" height="1155"><path d="M1405.02 307.766L-33.004 383.13l56.522 1078.52 1438.032-75.36-56.53-1078.524z" fill="#fff"/></mask><g mask="url(#b)"><path d="M-262.291 399.394l-369.597 19.37c-13.314.698-23.54 12.055-22.842 25.368.698 13.314 12.055 23.54 25.368 22.842l25.382-1.33c10.713-.562 19.856 7.671 20.418 18.384.561 10.714-7.672 19.857-18.385 20.419l-138.302 7.248c-13.314.697-23.539 12.054-22.842 25.368l.437 8.328c.698 13.314 12.054 23.54 25.368 22.842l208.316-10.917c12.966-.68 24.033 9.285 24.713 22.251.679 12.966-9.285 24.033-22.252 24.712l-59.648 3.126c-14.206.745-25.113 12.864-24.369 27.065.745 14.206 12.864 25.113 27.065 24.369l345.288-18.096c14.206-.745 25.113-12.864 24.369-27.065-.745-14.206-12.864-25.113-27.065-24.369l-62.781 3.291c-13.278.696-24.603-9.502-25.299-22.779-.696-13.278 9.501-24.603 22.779-25.299l155.822-8.167c12.757-.668 23.634 9.132 24.303 21.882.788 15.04 13.614 26.588 28.653 25.8l226.016-11.845c15.441-.809 27.302-13.982 26.492-29.423-.809-15.44-13.982-27.301-29.422-26.492l-79.733 4.179c-13.763.721-25.498-9.851-26.22-23.609-.72-13.763 9.852-25.498 23.609-26.219l29.18-1.529c10.713-.562 18.946-9.705 18.384-20.418-.561-10.714-9.705-18.947-20.418-18.385l-15.59.817-266.467 13.965c-12.786.67-23.701-9.152-24.372-21.945-.719-13.835-12.523-24.464-26.358-23.739z" fill="#fff" opacity=".1"/></g><mask id="c" style="mask-type:luminance" maskUnits="userSpaceOnUse" x="-71" y="227" width="1495" height="1155"><path d="M1367.03 227.768L-71 303.132l56.523 1078.518 1438.027-75.36-56.52-1078.522z" fill="#fff"/></mask><g mask="url(#c)" fill="#fff"><path opacity=".1" d="M193.569 1222.97c-.726-13.86 9.925-25.7 23.796-26.43l18.778-.98c13.865-.73 24.523-12.56 23.796-26.43-.727-13.86-12.557-24.52-26.428-23.79l-335.168 17.56c-13.865.73-24.522 12.56-23.796 26.43.727 13.86 12.557 24.52 26.428 23.79l122.412-6.41c13.865-.73 25.7 9.92 26.428 23.79.726 13.87-9.925 25.7-23.796 26.43l-80.613 4.23c-13.865.72-24.523 12.55-23.796 26.42.727 13.87 12.557 24.53 26.428 23.8l404.457-21.2c13.865-.72 24.522-12.55 23.795-26.42-.726-13.87-12.556-24.53-26.427-23.8l-129.866 6.81c-13.865.72-25.701-9.93-26.428-23.8zm268.764 60.14l-24.614 1.29c-12.912.68-23.923-9.24-24.599-22.15-.677-12.91 9.243-23.92 22.149-24.6l24.614-1.29c12.912-.67 23.923 9.25 24.599 22.15.677 12.91-9.243 23.92-22.149 24.6z"/></g></svg>