<svg width="660" height="551" viewBox="0 0 660 551" fill="none" xmlns="http://www.w3.org/2000/svg"><path opacity=".6" d="M495.41 354.193V196.482a28.724 28.724 0 00-14.374-24.88L344.374 92.746a28.762 28.762 0 00-28.745 0l-136.664 78.858a28.728 28.728 0 00-14.375 24.881v157.708a28.724 28.724 0 0014.375 24.881l136.661 78.856a28.765 28.765 0 0028.746 0l136.661-78.856a28.73 28.73 0 0014.377-24.881z" fill="#00FBF2"/><g opacity=".4" fill="#fff"><path d="M192.286 358.484l-3.047-5.61 137.569-74.686V114.656h6.385v167.327l-140.907 76.501z"/><path d="M331.54 277.298l-3.048 5.607 139.237 75.602 3.048-5.607-139.237-75.602z"/></g><path d="M330 435.459a27.39 27.39 0 01-13.695-3.655l-115.041-66.378c-8.448-4.876-13.695-13.959-13.695-23.707V208.96c0-9.748 5.247-18.832 13.695-23.707l115.041-66.378c8.448-4.873 18.945-4.873 27.39 0l115.041 66.378c8.448 4.875 13.695 13.959 13.695 23.707v132.759c0 9.748-5.247 18.831-13.695 23.707l-115.041 66.375A27.39 27.39 0 01330 435.459zm0-313.863c-3.633 0-7.263.934-10.502 2.803L204.457 190.78a21.045 21.045 0 00-10.502 18.18v132.759a21.047 21.047 0 0010.502 18.18l115.041 66.378a21.072 21.072 0 0021.004 0l115.041-66.378a21.047 21.047 0 0010.502-18.18V208.96a21.045 21.045 0 00-10.502-18.18l-115.041-66.378A20.977 20.977 0 00330 121.596z" fill="#fff" opacity=".6"/><path d="M334.829 259.106h-.429c-2.131 0-4.21.588-6.08 1.611a13.621 13.621 0 01-6.562 1.671c-2.378 0-4.611-.608-6.561-1.671-1.87-1.023-3.946-1.611-6.08-1.611h-.429c-7.568 0-13.704 6.132-13.704 13.695 0 7.564 6.136 13.695 13.704 13.695h.365c2.145 0 4.233-.594 6.111-1.627a13.62 13.62 0 016.592-1.69c2.389 0 4.636.613 6.591 1.69 1.879 1.033 3.966 1.627 6.111 1.627h.366c7.568 0 13.703-6.131 13.703-13.695.005-7.563-6.13-13.695-13.698-13.695z" fill="#F00000"/><path d="M321.761 272.798c-8.206 0-15.116 5.525-17.223 13.052 1.312.418 2.706.643 4.155.643h.366c2.145 0 4.232-.593 6.111-1.627a13.62 13.62 0 016.591-1.69c2.39 0 4.637.613 6.592 1.69 1.878 1.034 3.966 1.627 6.111 1.627h.365c1.45 0 2.847-.225 4.156-.643-2.11-7.527-9.018-13.052-17.224-13.052z" fill="#FF0021"/><path d="M341.234 345.132c44.986 0 81.455-36.447 81.455-81.406s-36.469-81.406-81.455-81.406c-44.987 0-81.455 36.447-81.455 81.406s36.468 81.406 81.455 81.406z" fill="#FF8D00"/><path d="M342.122 374.875a6.473 6.473 0 01-6.476-6.473v-39.106a6.474 6.474 0 016.476-6.472 6.472 6.472 0 016.476 6.472v39.106a6.473 6.473 0 01-6.476 6.473zm-28.726 0a6.474 6.474 0 01-6.477-6.473v-39.106a6.473 6.473 0 016.477-6.472 6.473 6.473 0 016.476 6.472v39.106a6.474 6.474 0 01-6.476 6.473z" fill="#FFCE00"/><path d="M323.84 345.085c44.987 0 81.455-36.446 81.455-81.406 0-44.959-36.468-81.406-81.455-81.406-44.986 0-81.455 36.447-81.455 81.406 0 44.96 36.469 81.406 81.455 81.406z" fill="#FFE700"/><path d="M252.34 302.7a81.8 81.8 0 0032.076 32.227l110.922-110.271a81.8 81.8 0 00-32.076-32.227L252.34 302.7z" fill="#FFEE72"/><path d="M323.84 324.72c33.732 0 61.078-27.329 61.078-61.041 0-33.711-27.346-61.04-61.078-61.04s-61.077 27.329-61.077 61.04c0 33.712 27.345 61.041 61.077 61.041z" fill="#FFCE00"/><path d="M303.012 250.707a5.164 5.164 0 01-5.151-5.175l.008-2.809a5.163 5.163 0 015.178-5.147 5.164 5.164 0 015.151 5.175l-.008 2.809a5.165 5.165 0 01-5.178 5.147z" fill="url(#paint0_linear_6090_2452)"/><path d="M343.778 250.814a5.164 5.164 0 01-5.151-5.175l.008-2.809a5.163 5.163 0 015.178-5.147 5.164 5.164 0 015.151 5.175l-.008 2.809a5.16 5.16 0 01-5.178 5.147z" fill="url(#paint1_linear_6090_2452)"/><path opacity=".8" d="M268.7 267.711c.088-33.711 27.505-60.969 61.24-60.881 11.748.03 22.712 3.378 32.01 9.149a60.848 60.848 0 00-37.95-13.34c-33.732-.088-61.152 27.167-61.24 60.881-.058 21.97 11.509 41.258 28.905 52.054-14.039-11.222-23.017-28.501-22.965-47.863z" fill="#FF9F00"/><path d="M253.564 314.796c-.261 0-.418-.003-.459-.006a5.662 5.662 0 01-5.503-5.823 5.661 5.661 0 015.811-5.5c.148.003 6.33.091 13.335-2.311 8.879-3.048 14.995-8.583 18.174-16.455a5.667 5.667 0 017.376-3.13 5.66 5.66 0 013.132 7.371c-4.455 11.029-13.244 19.005-25.415 23.067-7.788 2.597-14.636 2.787-16.451 2.787zm144.62 0c-1.815 0-8.663-.187-16.456-2.787-12.172-4.062-20.961-12.038-25.416-23.067a5.666 5.666 0 0110.508-4.241c3.179 7.872 9.295 13.407 18.175 16.455 7.056 2.421 13.277 2.314 13.337 2.311a5.656 5.656 0 015.817 5.5c.088 3.125-2.385 5.733-5.511 5.823-.039 0-.196.006-.454.006z" fill="#FFA400"/><path d="M336.281 253.247h-.429c-2.131 0-4.21.588-6.08 1.61a13.609 13.609 0 01-6.561 1.671c-2.379 0-4.612-.607-6.562-1.671-1.87-1.022-3.946-1.61-6.08-1.61h-.429c-7.568 0-13.703 6.131-13.703 13.695 0 7.563 6.135 13.695 13.703 13.695h.366c2.145 0 4.232-.594 6.11-1.627a13.61 13.61 0 016.592-1.691c2.39 0 4.636.613 6.592 1.691 1.878 1.033 3.965 1.627 6.11 1.627h.366c7.568 0 13.703-6.132 13.703-13.695.006-7.564-6.13-13.695-13.698-13.695z" fill="#F00000"/><path d="M323.213 266.942c-8.206 0-15.116 5.524-17.223 13.052 1.312.417 2.706.643 4.156.643h.365c2.145 0 4.232-.594 6.111-1.627a13.61 13.61 0 016.591-1.691c2.39 0 4.637.613 6.592 1.691 1.879 1.033 3.966 1.627 6.111 1.627h.365c1.45 0 2.847-.226 4.156-.643-2.107-7.531-9.018-13.052-17.224-13.052z" fill="#FF0021"/><path d="M213.724 258.738a6.002 6.002 0 01-6.003-6v-34.107a6.002 6.002 0 016.003-5.999 6.002 6.002 0 016.004 5.999v34.107a6 6 0 01-6.004 6zm0 22.6a6.003 6.003 0 01-6.003-6v-1.786c0-3.312 2.687-6 6.003-6a6.002 6.002 0 016.004 6v1.786c0 3.312-2.687 6-6.004 6z" opacity=".8" fill="#fff"/><path d="M521.491 478.644a2.023 2.023 0 01-1.433-3.455l9.996-9.99a2.027 2.027 0 012.863 0 2.02 2.02 0 010 2.861l-9.996 9.99a2.01 2.01 0 01-1.43.594zm-11.594-11.587a2.023 2.023 0 01-1.433-.594 2.02 2.02 0 010-2.861l4.664-4.661a6.41 6.41 0 015.693-1.77l8.021 1.479a2.022 2.022 0 11-.734 3.977l-8.022-1.479a2.359 2.359 0 00-2.095.651l-4.664 4.662a2 2 0 01-1.43.596zm28.46 26.686a2.022 2.022 0 01-1.433-.593l-4.664-4.661a6.405 6.405 0 01-1.771-5.69c.017-.087.039-.173.066-.258l3.707-11.386a2.024 2.024 0 013.85 1.253l-3.66 11.241a2.359 2.359 0 00.668 1.981l4.664 4.661a2.02 2.02 0 01-1.427 3.452zm9.215-41.167a2.023 2.023 0 01-1.433-.594 2.02 2.02 0 010-2.861l9.997-9.99a2.023 2.023 0 112.862 2.861l-9.996 9.99c-.393.396-.91.594-1.43.594zm-5.992-5.005c-.957 0-1.81-.681-1.988-1.657l-1.48-8.017a6.403 6.403 0 011.771-5.689l4.664-4.661a2.027 2.027 0 012.863 0 2.025 2.025 0 010 2.861l-4.664 4.661c-.55.55-.792 1.33-.652 2.094l1.48 8.017a2.022 2.022 0 01-1.623 2.355c-.126.025-.25.036-.371.036zm31.097 11.87a2.023 2.023 0 01-1.433-.594l-4.664-4.661a2.352 2.352 0 00-1.983-.668l-11.247 3.658a2.023 2.023 0 11-1.254-3.847l11.393-3.705c.085-.027.171-.049.259-.066a6.41 6.41 0 015.692 1.77l4.664 4.661a2.02 2.02 0 010 2.861 1.993 1.993 0 01-1.427.591z" fill="gray"/><path d="M527.5 458.364c6.357 0 11.511-5.151 11.511-11.505 0-6.353-5.154-11.504-11.511-11.504-6.358 0-11.512 5.151-11.512 11.504 0 6.354 5.154 11.505 11.512 11.505z" fill="#000"/><path d="M552.027 471.253l-.119.119c-6.998 6.994-18.347 6.994-25.346 0l-2.217-2.216c-6.998-6.994-6.998-18.336 0-25.331l.119-.118c6.998-6.995 18.347-6.995 25.349 0l2.217 2.215c6.998 6.995 6.998 18.334-.003 25.331z" fill="red"/><path d="M524.464 443.707l-.119.118a18.023 18.023 0 00-2.095 2.52c6.982-4.807 16.615-4.114 22.825 2.095l2.217 2.215c6.209 6.206 6.905 15.833 2.095 22.811a17.916 17.916 0 002.522-2.094l.118-.118c6.999-6.995 6.999-18.337 0-25.332l-2.216-2.215c-6.999-6.997-18.348-6.997-25.347 0z" fill="#D00000"/><path d="M521.065 445.683a1.26 1.26 0 01-.894-.371l-5.992-5.989a1.264 1.264 0 111.79-1.789l5.992 5.989a1.263 1.263 0 01-.896 2.16zm3.993-3.993c-.324 0-.646-.124-.894-.371l-5.992-5.989a1.264 1.264 0 111.79-1.789l5.993 5.988a1.264 1.264 0 01-.897 2.161z" fill="#000"/><path d="M524.563 463.819c-.457 0-.899-.247-1.125-.681-3.036-5.843-1.127-10.812-1.045-11.021a1.264 1.264 0 012.354.926c-.066.173-1.548 4.153.935 8.929a1.263 1.263 0 01-1.119 1.847z" fill="#fff"/><path d="M114.933 434.901a2.809 2.809 0 01-1.985-.822L99.093 420.23a2.8 2.8 0 010-3.965 2.804 2.804 0 013.969 0l13.854 13.848a2.801 2.801 0 010 3.966 2.787 2.787 0 01-1.983.822zm8.311-6.939a2.803 2.803 0 01-2.761-3.315l2.051-11.111a3.265 3.265 0 00-.902-2.903l-6.465-6.461a2.801 2.801 0 010-3.966 2.809 2.809 0 013.968 0l6.466 6.461a8.87 8.87 0 012.453 7.888l-2.052 11.112a2.81 2.81 0 01-2.758 2.295zm-43.112 16.457a2.808 2.808 0 01-1.985-.822 2.8 2.8 0 010-3.966l6.465-6.458a8.883 8.883 0 017.892-2.452c.121.022.242.052.36.091l15.794 5.136a2.805 2.805 0 11-1.735 5.335l-15.59-5.071a3.263 3.263 0 00-2.75.929l-6.465 6.462a2.818 2.818 0 01-1.986.816zm70.958 26.617a2.808 2.808 0 01-1.985-.821l-13.857-13.849a2.8 2.8 0 010-3.966 2.804 2.804 0 013.968 0l13.857 13.849a2.801 2.801 0 010 3.966 2.786 2.786 0 01-1.983.821zm16.072-16.061a2.81 2.81 0 01-1.986-.822l-6.465-6.461a3.267 3.267 0 00-2.904-.902l-11.118 2.051a2.808 2.808 0 01-3.27-2.248 2.807 2.807 0 012.249-3.268l11.119-2.05a8.888 8.888 0 017.892 2.451l6.465 6.461a2.8 2.8 0 010 3.966 2.786 2.786 0 01-1.982.822zm-39.449 36.993a2.81 2.81 0 01-1.986-.822 2.801 2.801 0 010-3.966l6.465-6.461a3.26 3.26 0 00.927-2.749l-5.074-15.58a2.806 2.806 0 015.338-1.734l5.14 15.784c.038.118.069.236.091.36a8.878 8.878 0 01-2.453 7.887l-6.466 6.462a2.793 2.793 0 01-1.982.819z" fill="gray"/><path d="M142.359 442.522c8.812 0 15.956-7.139 15.956-15.945 0-8.807-7.144-15.946-15.956-15.946s-15.955 7.139-15.955 15.946c0 8.806 7.143 15.945 15.955 15.945z" fill="#000"/><path d="M108.523 460.557l-.165-.165c-9.705-9.699-9.705-25.419 0-35.118l3.072-3.07c9.705-9.699 25.435-9.699 35.139 0l.165.165c9.705 9.699 9.705 25.419 0 35.118l-3.071 3.07c-9.705 9.696-25.438 9.696-35.14 0z" fill="red"/><path d="M146.735 422.369l-.165-.165a24.887 24.887 0 00-3.496-2.902c6.669 9.674 5.707 23.02-2.904 31.622l-3.071 3.07c-8.611 8.605-21.965 9.567-31.642 2.902a24.778 24.778 0 002.904 3.493l.165.165c9.705 9.699 25.435 9.699 35.14 0l3.071-3.07c9.7-9.696 9.7-25.419-.002-35.115z" fill="#D00000"/><path d="M145.747 419.409a1.752 1.752 0 01-1.24-2.993l8.307-8.303 2.481 2.479-8.308 8.303a1.75 1.75 0 01-1.24.514zm5.536 5.535a1.754 1.754 0 01-1.241-2.993l8.308-8.303a1.754 1.754 0 012.481 2.479l-8.308 8.303a1.736 1.736 0 01-1.24.514z" fill="#000"/><path d="M120.59 424.257a1.755 1.755 0 01-.811-3.309c8.104-4.205 14.999-1.561 15.287-1.446a1.754 1.754 0 01-1.284 3.263c-.242-.094-5.761-2.141-12.386 1.294a1.73 1.73 0 01-.806.198z" fill="#fff"/><path d="M63.844 249.19a1.81 1.81 0 01-1.81-1.808v-12.623a1.809 1.809 0 113.62 0v12.623a1.81 1.81 0 01-1.81 1.808zm6.952.618a1.809 1.809 0 01-1.026-3.298l6.004-4.13a2.104 2.104 0 00.913-1.734v-5.89a1.809 1.809 0 113.619 0v5.89a5.725 5.725 0 01-2.478 4.713l-6.003 4.131a1.807 1.807 0 01-1.029.318zm-13.178-.904c-.66 0-1.295-.36-1.614-.989l-4.793-9.413a2.11 2.11 0 00-1.678-.83h-5.89a1.809 1.809 0 110-3.617h5.893a5.73 5.73 0 014.716 2.476c.044.066.085.135.121.206l4.857 9.537a1.807 1.807 0 01-1.612 2.63zm6.226 33.225a1.81 1.81 0 01-1.81-1.808v-12.624a1.81 1.81 0 013.62 0v12.624a1.81 1.81 0 01-1.81 1.808zm14.649 0a1.81 1.81 0 01-1.81-1.808v-5.89c0-.693-.34-1.341-.912-1.734l-6.004-4.131a1.809 1.809 0 112.052-2.979l6.006 4.133a5.726 5.726 0 012.478 4.714v5.889a1.81 1.81 0 01-1.81 1.806zm-28.96-1.11h-5.89a1.809 1.809 0 110-3.617h5.893a2.11 2.11 0 001.677-.83l4.794-9.413a1.81 1.81 0 013.225 1.641l-4.856 9.536c-.036.072-.077.14-.121.206a5.746 5.746 0 01-4.722 2.477z" fill="gray"/><path d="M78.862 267.637c5.68 0 10.285-4.602 10.285-10.279s-4.605-10.279-10.285-10.279-10.285 4.602-10.285 10.279 4.604 10.279 10.285 10.279z" fill="#000"/><path d="M47.943 257.432v-.148c0-8.839 7.17-16.006 16.016-16.006h2.8c8.844 0 16.016 7.165 16.016 16.006v.148c0 8.839-7.17 16.007-16.016 16.007h-2.8c-8.846 0-16.016-7.168-16.016-16.007z" fill="red"/><path d="M82.775 257.432v-.148c0-.995-.096-1.971-.27-2.916-1.372 7.448-7.898 13.09-15.746 13.09h-2.8c-7.848 0-14.374-5.642-15.746-13.09-.173.945-.27 1.918-.27 2.916v.148c0 8.839 7.17 16.007 16.016 16.007h2.8c8.844 0 16.016-7.168 16.016-16.007z" fill="#D00000"/><path d="M92.045 255.965h-7.57a1.13 1.13 0 110-2.259h7.57a1.13 1.13 0 110 2.259zm0 5.046h-7.57a1.13 1.13 0 110-2.259h7.57a1.13 1.13 0 110 2.259z" fill="#000"/><path d="M77.726 252.389c-.434 0-.85-.253-1.037-.679-.068-.156-1.652-3.6-6.237-5.051a1.13 1.13 0 01.682-2.155c5.613 1.776 7.55 6.121 7.626 6.305a1.129 1.129 0 01-.588 1.484 1.057 1.057 0 01-.446.096z" fill="#fff"/><path d="M587.042 128.189c-.737 0-1.471-.28-2.032-.841l-14.193-14.184a2.872 2.872 0 010-4.062 2.875 2.875 0 014.065 0l14.192 14.184a2.872 2.872 0 01-2.032 4.903zm-16.461 16.451c-.737 0-1.472-.28-2.033-.841l-6.622-6.618a9.084 9.084 0 01-2.513-8.08l2.101-11.383a2.873 2.873 0 013.349-2.303 2.872 2.872 0 012.305 3.347l-2.101 11.384a3.337 3.337 0 00.927 2.973l6.622 6.618a2.872 2.872 0 01-2.035 4.903zm26.895-31.946c-.55 0-1.1-.05-1.65-.151a2.81 2.81 0 01-.369-.094l-16.178-5.263a2.873 2.873 0 111.776-5.464l15.972 5.195a3.34 3.34 0 002.816-.951l6.622-6.618a2.877 2.877 0 014.065 0 2.872 2.872 0 010 4.062l-6.622 6.618a9.095 9.095 0 01-6.432 2.666zm-47.471-21.52c-.737 0-1.471-.28-2.032-.84L533.78 76.148a2.872 2.872 0 010-4.062 2.877 2.877 0 014.065 0l14.193 14.184a2.872 2.872 0 01-2.033 4.903zm-19.635 10.708a9.103 9.103 0 01-6.432-2.663l-6.622-6.618a2.872 2.872 0 010-4.063 2.877 2.877 0 014.065 0l6.622 6.618a3.348 3.348 0 002.975.924l11.391-2.1a2.878 2.878 0 013.349 2.303 2.874 2.874 0 01-2.304 3.348l-11.391 2.1a9.15 9.15 0 01-1.653.151zm26.315-18.022a2.88 2.88 0 01-2.733-1.984l-5.266-16.168a2.812 2.812 0 01-.094-.368 9.091 9.091 0 012.514-8.08l6.622-6.618a2.872 2.872 0 114.064 4.062l-6.622 6.618a3.356 3.356 0 00-.951 2.814l5.197 15.96a2.874 2.874 0 01-2.731 3.765z" fill="gray"/><path d="M544.756 133.122c9.027 0 16.346-7.314 16.346-16.336 0-9.022-7.319-16.336-16.346-16.336-9.028 0-16.346 7.314-16.346 16.336 0 9.022 7.318 16.336 16.346 16.336z" fill="#000"/><path d="M579.416 81.978l.168.168c9.939 9.932 9.939 26.04 0 35.973l-3.146 3.144c-9.938 9.933-26.056 9.933-35.995 0l-.167-.168c-9.939-9.932-9.939-26.04 0-35.973l3.146-3.144c9.938-9.932 26.056-9.932 35.994 0z" fill="red"/><path d="M540.276 121.095l.168.168a25.677 25.677 0 003.58 2.974c-6.831-9.911-5.844-23.581 2.975-32.395l3.147-3.144c8.819-8.814 22.497-9.8 32.414-2.974a25.46 25.46 0 00-2.976-3.578l-.167-.168c-9.939-9.932-26.057-9.932-35.995 0l-3.146 3.144c-9.941 9.936-9.941 26.041 0 35.973z" fill="#D00000"/><path d="M534.05 135.695l-2.541-2.54 8.508-8.503a1.798 1.798 0 012.541 0 1.794 1.794 0 010 2.539l-8.508 8.504zm-5.674-5.668l-2.541-2.539 8.509-8.503a1.796 1.796 0 112.541 2.539l-8.509 8.503z" fill="#000"/><path d="M558.142 124.982c-3.451 0-5.747-.883-5.915-.949a1.796 1.796 0 011.317-3.342c.262.099 5.907 2.191 12.686-1.327a1.797 1.797 0 111.656 3.188c-3.641 1.888-7.046 2.43-9.744 2.43z" fill="#fff"/><path d="M145.719 77.652a2.017 2.017 0 01-1.427-3.44l9.958-9.952a2.02 2.02 0 012.852 0 2.017 2.017 0 010 2.85l-9.958 9.951a1.993 1.993 0 01-1.425.591zm13.778 7.514c-.385 0-.773-.035-1.158-.107l-7.991-1.473a2.016 2.016 0 01.731-3.963l7.992 1.473a2.35 2.35 0 002.087-.649l4.645-4.642a2.02 2.02 0 012.852 0 2.017 2.017 0 010 2.85l-4.645 4.642a6.395 6.395 0 01-4.513 1.87zm-18.464-12.645a2.011 2.011 0 01-1.916-2.638l3.646-11.197a2.337 2.337 0 00-.668-1.973l-4.645-4.642a2.017 2.017 0 010-2.85 2.02 2.02 0 012.852 0l4.645 4.642a6.37 6.37 0 011.762 5.667 1.93 1.93 0 01-.066.258l-3.693 11.345a2.017 2.017 0 01-1.917 1.388zm-21.298 31.103a2.015 2.015 0 01-1.427-3.441l9.957-9.952a2.015 2.015 0 112.852 2.85l-9.958 9.952a2.007 2.007 0 01-1.424.591zm11.55 11.543a2.017 2.017 0 01-1.428-3.441l4.645-4.642a2.348 2.348 0 00.649-2.086l-1.474-7.986a2.016 2.016 0 013.966-.731l1.474 7.986a6.372 6.372 0 01-1.763 5.667l-4.645 4.642c-.39.393-.907.591-1.424.591zm-18.871-22.415a6.384 6.384 0 01-4.512-1.87l-4.645-4.641a2.015 2.015 0 112.852-2.85l4.644 4.642c.52.52 1.252.764 1.975.668l11.206-3.645a2.015 2.015 0 111.249 3.831l-11.352 3.692a2.34 2.34 0 01-.259.066 6.354 6.354 0 01-1.158.107z" fill="gray"/><path d="M149.691 106.796c6.333 0 11.467-5.131 11.467-11.46 0-6.33-5.134-11.462-11.467-11.462-6.334 0-11.468 5.132-11.468 11.461 0 6.33 5.134 11.461 11.468 11.461z" fill="#000"/><path d="M125.254 71.031l.118-.118c6.974-6.97 18.279-6.97 25.253 0l2.209 2.207c6.974 6.97 6.974 18.268 0 25.238l-.119.118c-6.974 6.97-18.279 6.97-25.253 0l-2.208-2.207c-6.974-6.967-6.974-18.268 0-25.238z" fill="red"/><path d="M152.716 98.477l.118-.119a17.797 17.797 0 002.087-2.512c-6.957 4.791-16.552 4.098-22.742-2.086l-2.209-2.207c-6.187-6.183-6.88-15.775-2.087-22.728-.883.607-1.727 1.3-2.513 2.086l-.119.118c-6.974 6.97-6.974 18.268 0 25.238l2.209 2.207c6.976 6.972 18.282 6.972 25.256.002z" fill="#D00000"/><path d="M161.183 104.624l-5.971-5.966a1.259 1.259 0 111.782-1.781l5.971 5.967-1.782 1.78zm-3.088 4.348c-.322 0-.647-.123-.891-.368l-5.971-5.967a1.26 1.26 0 011.782-1.78l5.971 5.966a1.259 1.259 0 01-.891 2.149z" fill="#000"/><path d="M153.607 90.894a1.258 1.258 0 01-1.174-1.718c.068-.181 1.537-4.142-.933-8.896a1.26 1.26 0 012.239-1.16c3.025 5.82 1.122 10.773 1.039 10.98a1.262 1.262 0 01-1.171.794z" fill="#fff"/><path d="M588.351 294.552c-.913 0-1.652-.74-1.652-1.652v-11.54a1.652 1.652 0 013.305 0v11.54c0 .912-.74 1.652-1.653 1.652zm-13.392 0c-.913 0-1.653-.74-1.653-1.652v-5.384c0-1.721.847-3.331 2.266-4.307l5.486-3.776a1.653 1.653 0 011.876 2.721l-5.486 3.776c-.523.36-.834.951-.834 1.586v5.384a1.656 1.656 0 01-1.655 1.652zm31.859-1.015h-5.388a5.24 5.24 0 01-4.312-2.264 2.02 2.02 0 01-.113-.187l-4.438-8.718a1.655 1.655 0 012.948-1.501l4.384 8.606a1.93 1.93 0 001.531.758h5.388c.913 0 1.652.739 1.652 1.652a1.65 1.65 0 01-1.652 1.654zm-18.467-29.096c-.913 0-1.652-.74-1.652-1.652v-11.54a1.652 1.652 0 013.305 0v11.54c0 .91-.74 1.652-1.653 1.652zm-6.358.566a1.64 1.64 0 01-.935-.291l-5.486-3.777a5.225 5.225 0 01-2.266-4.306v-5.384a1.652 1.652 0 013.306 0v5.384c0 .635.31 1.225.833 1.585l5.486 3.777c.754.516.943 1.547.424 2.297a1.645 1.645 0 01-1.362.715zm12.051-.827c-.253 0-.509-.058-.748-.182a1.652 1.652 0 01-.723-2.223l4.438-8.718c.033-.066.072-.126.113-.187a5.23 5.23 0 014.309-2.264h5.388a1.651 1.651 0 110 3.303h-5.388c-.602 0-1.168.283-1.531.759l-4.381 8.605a1.656 1.656 0 01-1.477.907z" fill="gray"/><path d="M574.62 281.637c5.193 0 9.403-4.207 9.403-9.397 0-5.189-4.21-9.396-9.403-9.396-5.192 0-9.402 4.207-9.402 9.396 0 5.19 4.21 9.397 9.402 9.397z" fill="#000"/><path d="M602.888 272.172v.137c0 8.08-6.556 14.632-14.641 14.632h-2.561c-8.085 0-14.641-6.552-14.641-14.632v-.137c0-8.08 6.556-14.632 14.641-14.632h2.561c8.085 0 14.641 6.552 14.641 14.632z" fill="red"/><path d="M571.045 272.172v.137c0 .91.088 1.8.248 2.666 1.254-6.807 7.219-11.966 14.393-11.966h2.561c7.174 0 13.139 5.159 14.393 11.966.16-.866.248-1.753.248-2.666v-.137c0-8.08-6.556-14.632-14.641-14.632h-2.561c-8.085 0-14.641 6.552-14.641 14.632z" fill="#D00000"/><path d="M569.492 275.58h-6.922a1.033 1.033 0 110-2.067h6.922a1.033 1.033 0 110 2.067zm0-4.612h-6.922a1.033 1.033 0 110-2.067h6.922a1.033 1.033 0 110 2.067z" fill="#000"/><path d="M581.996 284.036a1.01 1.01 0 01-.311-.049c-5.131-1.622-6.899-5.596-6.971-5.763a1.032 1.032 0 011.895-.825c.063.14 1.51 3.293 5.701 4.617a1.033 1.033 0 01-.314 2.02z" fill="#fff"/><defs><linearGradient id="paint0_linear_6090_2452" x1="303.042" y1="239.032" x2="303.007" y2="252.549" gradientUnits="userSpaceOnUse"><stop stop-color="#3B393C"/><stop offset=".067" stop-color="#312F32"/><stop offset=".25" stop-color="#1B1A1C"/><stop offset=".451" stop-color="#0C0C0C"/><stop offset=".68" stop-color="#030303"/><stop offset="1"/></linearGradient><linearGradient id="paint1_linear_6090_2452" x1="343.809" y1="239.139" x2="343.774" y2="252.657" gradientUnits="userSpaceOnUse"><stop stop-color="#3B393C"/><stop offset=".067" stop-color="#312F32"/><stop offset=".25" stop-color="#1B1A1C"/><stop offset=".451" stop-color="#0C0C0C"/><stop offset=".68" stop-color="#030303"/><stop offset="1"/></linearGradient></defs></svg>