<svg width="64" height="64" viewBox="0 0 64 64" fill="none" xmlns="http://www.w3.org/2000/svg"><path d="M21.333 9.035c-.224.058-.39.144-1.296.645-.203.112-.421.283-.501.395a6.7 6.7 0 01-.3.362c-.111.118-.16.224-.154.331.01.39.256.677 2.278 2.725a501.663 501.663 0 012.693 2.747c.4.41 2.165 2.208 3.92 4 4.277 4.352 4.944 5.05 6.56 6.88 2.523 2.853 3.979 4.357 4.608 4.768.192.123.656.379 1.035.57.565.289.677.363.618.417-.042.037-.384.32-.762.624-.64.512-1.115.922-3.34 2.874-.788.694-2.24 1.947-3.172 2.747-.758.64-2.011 1.765-2.96 2.64a418.88 418.88 0 00-5.334 5.093c-.688.672-1.637 1.595-2.101 2.054-1.205 1.173-1.861 1.872-2.283 2.426a41.32 41.32 0 01-.554.72c-.107.134-.24.336-.3.448-.223.432-.026 1.35.369 1.718.155.144.73.458.8.437a.496.496 0 01.203.075c.304.16.869.218 1.818.192 1.286-.043 1.574-.144 2.555-.939.981-.8 1.69-1.568 4.133-4.49 2.924-3.494 3.964-4.684 6.582-7.49.965-1.04 2.48-2.752 3.072-3.472.218-.272.698-.858 1.066-1.306a135.035 135.035 0 012.374-2.843c.554-.64.597-.677.789-.677.192 0 .203-.011.357-.336.09-.187.16-.374.16-.416 0-.043.038-.123.08-.176a.412.412 0 00.08-.176c0-.043.054-.144.112-.23l.118-.149-.123-.528c-.064-.288-.128-.56-.139-.608-.026-.101-.24-.208-.416-.208-.106 0-.133-.043-.192-.31-.16-.714-.565-1.61-.95-2.09a92.38 92.38 0 00-1.156-1.36c-.534-.619-1.568-1.84-2.3-2.72-.735-.88-1.68-1.984-2.1-2.453-1.03-1.152-3.456-3.568-5.44-5.419-4.022-3.75-4.326-4-6.907-5.621-.73-.459-1.67-1.062-2.08-1.334-.96-.629-1.056-.666-1.52-.538z" fill="#000"/></svg>