<svg width="64" height="64" viewBox="0 0 64 64" fill="none" xmlns="http://www.w3.org/2000/svg"><path d="M41.733 9.024c-.085.032-.496.277-.906.55-.411.271-1.35.874-2.08 1.333-2.582 1.621-2.886 1.872-6.907 5.621-1.984 1.85-4.41 4.267-5.44 5.419-.421.469-1.365 1.573-2.101 2.453a232.62 232.62 0 01-2.3 2.72 99.502 99.502 0 00-1.156 1.36c-.384.48-.79 1.376-.95 2.09-.059.267-.085.31-.192.31-.176 0-.39.107-.416.208-.01.048-.075.32-.139.608l-.122.528.117.15c.059.085.112.186.112.229 0 .037.038.117.08.176.043.053.08.133.08.176 0 .042.07.229.16.416.155.325.165.336.357.336.192 0 .235.037.79.677.65.752 1.365 1.61 2.373 2.843.368.448.848 1.034 1.067 1.306.592.72 2.107 2.432 3.072 3.472 2.619 2.806 3.659 3.995 6.581 7.488 2.443 2.923 3.152 3.691 4.133 4.491.982.795 1.27.896 2.555.939.95.026 1.515-.032 1.819-.192.09-.048.176-.08.203-.075.069.021.645-.293.8-.437.394-.368.591-1.286.367-1.718a3.436 3.436 0 00-.298-.448 42.776 42.776 0 01-.555-.72c-.421-.554-1.077-1.253-2.283-2.426-.464-.459-1.413-1.382-2.1-2.054a418.254 418.254 0 00-5.334-5.093c-.95-.875-2.203-2-2.96-2.64a436.88 436.88 0 01-3.174-2.747c-2.224-1.952-2.698-2.362-3.338-2.874a45.38 45.38 0 01-.763-.624c-.059-.054.053-.128.619-.416a15.52 15.52 0 001.034-.571c.63-.41 2.086-1.915 4.608-4.768 1.616-1.83 2.283-2.528 6.56-6.88 1.755-1.792 3.52-3.59 3.92-4 .395-.41 1.611-1.648 2.694-2.747 2.021-2.048 2.267-2.336 2.277-2.725.005-.107-.043-.213-.154-.33a4.842 4.842 0 01-.294-.363c-.085-.112-.32-.288-.587-.443-1.04-.592-1.477-.736-1.829-.608z" fill="#000"/></svg>