<svg width="64" height="64" viewBox="0 0 64 64" fill="none" xmlns="http://www.w3.org/2000/svg"><path d="M35.76 19.339c-9.024.218-15.6.629-19.973 1.248-.683.101-1.766.314-1.99.4-.101.042-.197.261-.197.448 0 .224.405.965.656 1.194.33.304.57.395 1.397.512 1.211.171 2.102.214 5.867.272 11.893.182 12.517.192 17.547.374 4.405.16 5.733.181 7.066.112 1.392-.07 1.899-.128 2.39-.283.81-.245 1.84-.864 2.346-1.397.32-.342.544-.79.544-1.099 0-.299-.245-.523-1.002-.901-.907-.454-1.355-.592-2.118-.651-1.717-.128-10.229-.288-12.533-.23zM23.094 39.733c-1.643.038-2.006.054-3.467.166-.933.069-2.907.357-3.141.453a5.983 5.983 0 01-.651.181c-.816.176-1.157.416-1.467 1.024-.224.432-.202.678.086 1.243.309.603.464.773 1.216 1.36.746.587 1.248.853 1.658.89.166.017.923-.01 1.686-.058 2.314-.144 3.888-.187 7.786-.224 3.84-.037 5.408-.01 11.2.192 6.646.23 6.736.23 7.792.165 1.75-.101 2.918-.389 3.446-.853.192-.165.629-.95.629-1.125 0-.054.032-.166.075-.251.202-.41.256-.965.112-1.173a.476.476 0 00-.256-.155.866.866 0 01-.315-.155c-.213-.181-.864-.314-2.683-.554-4.021-.534-5.301-.651-9.413-.859-6.272-.315-9.43-.373-14.293-.267z" fill="#000"/></svg>